<?xml version="1.0" encoding="UTF-8" standalone="no"?>
<!-- Created with Inkscape (http://www.inkscape.org/) -->

<svg
   xmlns:dc="http://purl.org/dc/elements/1.1/"
   xmlns:cc="http://creativecommons.org/ns#"
   xmlns:rdf="http://www.w3.org/1999/02/22-rdf-syntax-ns#"
   xmlns:svg="http://www.w3.org/2000/svg"
   xmlns="http://www.w3.org/2000/svg"
   xmlns:sodipodi="http://sodipodi.sourceforge.net/DTD/sodipodi-0.dtd"
   xmlns:inkscape="http://www.inkscape.org/namespaces/inkscape"
   width="1600"
   height="900"
   viewBox="0 0 423.33333 238.12501"
   version="1.1"
   id="svg8"
   sodipodi:docname="ConnectFourAboutWindow_text.svg"
   inkscape:version="0.92.3 (2405546, 2018-03-11)"
   inkscape:export-filename="C:\Users\alber\eclipse-workspace\Testing\assets\filler_image.png"
   inkscape:export-xdpi="96"
   inkscape:export-ydpi="96">
  <defs
     id="defs2" />
  <sodipodi:namedview
     id="base"
     pagecolor="#282c2e"
     bordercolor="#666666"
     borderopacity="1.0"
     inkscape:pageopacity="0"
     inkscape:pageshadow="2"
     inkscape:zoom="0.49497475"
     inkscape:cx="615.14973"
     inkscape:cy="690.67762"
     inkscape:document-units="px"
     inkscape:current-layer="layer2"
     showgrid="false"
     units="px"
     inkscape:window-width="1920"
     inkscape:window-height="1001"
     inkscape:window-x="-9"
     inkscape:window-y="-9"
     inkscape:window-maximized="1" />
  <metadata
     id="metadata5">
    <rdf:RDF>
      <cc:Work
         rdf:about="">
        <dc:format>image/svg+xml</dc:format>
        <dc:type
           rdf:resource="http://purl.org/dc/dcmitype/StillImage" />
        <dc:title />
      </cc:Work>
    </rdf:RDF>
  </metadata>
  <g
     inkscape:label="Background"
     inkscape:groupmode="layer"
     id="layer1"
     transform="translate(0,-58.874993)"
     sodipodi:insensitive="true">
    <rect
       style="opacity:1;fill:#ffffff;fill-opacity:1;stroke:none;stroke-width:0.89926469;stroke-linecap:square;stroke-miterlimit:4;stroke-dasharray:none;stroke-dashoffset:0;stroke-opacity:1"
       id="rect3845"
       width="423.33334"
       height="238.125"
       x="-1.4751521e-006"
       y="58.874996"
       rx="0"
       ry="0" />
  </g>
  <g
     inkscape:groupmode="layer"
     id="layer2"
     inkscape:label="About page text">
    <rect
       style="display:inline;fill:#c0c0c0;fill-opacity:1;stroke:none;stroke-width:0.30659869;stroke-opacity:1"
       id="rect3478"
       width="61.319725"
       height="61.319725"
       x="52.605103"
       y="-79.254227" />
    <rect
       style="display:inline;fill:#1a1a1a;fill-opacity:1;stroke:none;stroke-width:0.30659869;stroke-opacity:1"
       id="rect3478-3"
       width="61.319725"
       height="61.319725"
       x="133.5181"
       y="-79.254227" />
    <rect
       style="display:inline;fill:#ff2a2a;fill-opacity:1;stroke:none;stroke-width:0.30659869;stroke-opacity:1"
       id="rect3478-3-1"
       width="61.319725"
       height="61.319725"
       x="214.43117"
       y="-79.254227" />
    <rect
       style="display:inline;fill:#ffa5a5;fill-opacity:1;stroke:none;stroke-width:0.30659869;stroke-opacity:1"
       id="rect3478-3-1-3"
       width="61.319725"
       height="61.319725"
       x="298.06921"
       y="-79.254227" />
    <g
       id="g4269"
       transform="matrix(0.94178445,0,0,0.94178445,12.322292,-1.2922981)">
      <flowRoot
         xml:space="preserve"
         id="flowRoot4493-3"
         style="font-style:normal;font-variant:normal;font-weight:normal;font-stretch:normal;font-size:40px;line-height:1.25;font-family:'MS PGothic';-inkscape-font-specification:'MS PGothic, Normal';font-variant-ligatures:normal;font-variant-caps:normal;font-variant-numeric:normal;font-feature-settings:normal;text-align:center;letter-spacing:0px;word-spacing:0px;writing-mode:lr-tb;text-anchor:middle;display:inline;fill:#ff2a2a;fill-opacity:1;stroke:#ff2a2a;stroke-width:1.34959292;stroke-miterlimit:4;stroke-dasharray:none;stroke-opacity:1"
         transform="matrix(0.52668489,0,0,0.54717538,-96.663016,15.708399)"><flowRegion
           id="flowRegion4489-9"
           style="font-style:normal;font-variant:normal;font-weight:normal;font-stretch:normal;font-size:40px;font-family:'MS PGothic';-inkscape-font-specification:'MS PGothic, Normal';font-variant-ligatures:normal;font-variant-caps:normal;font-variant-numeric:normal;font-feature-settings:normal;text-align:center;writing-mode:lr-tb;text-anchor:middle;fill:#ff2a2a;fill-opacity:1;stroke:#ff2a2a;stroke-width:1.34959292;stroke-miterlimit:4;stroke-dasharray:none;stroke-opacity:1"><rect
             id="rect4487-5"
             width="681.30762"
             height="68.00238"
             x="113.21429"
             y="12.857143"
             style="font-style:normal;font-variant:normal;font-weight:normal;font-stretch:normal;font-size:40px;font-family:'MS PGothic';-inkscape-font-specification:'MS PGothic, Normal';font-variant-ligatures:normal;font-variant-caps:normal;font-variant-numeric:normal;font-feature-settings:normal;text-align:center;writing-mode:lr-tb;text-anchor:middle;fill:#ff2a2a;fill-opacity:1;stroke:#ff2a2a;stroke-width:1.34959292;stroke-miterlimit:4;stroke-dasharray:none;stroke-opacity:1" /></flowRegion><flowPara
           id="flowPara4491-6">About</flowPara></flowRoot>      <g
         transform="matrix(1.3343905,0,0,1.3343905,-137.82409,-47.489256)"
         id="g4173">
        <rect
           style="fill:#ff2a2a;fill-opacity:1;stroke:none;stroke-width:1.38509405;stroke-miterlimit:4;stroke-dasharray:none;stroke-opacity:1"
           id="rect4549"
           width="38.253075"
           height="19.462673"
           x="295.30829"
           y="53.012714"
           ry="3.6352944" />
        <g
           id="g4845"
           style="fill:#ffffff;fill-opacity:1;stroke:#ffffff;stroke-opacity:1"
           transform="matrix(1.3498444,0,0,1.3498444,220.29128,62.708175)">
          <g
             id="g4923">
            <path
               inkscape:connector-curvature="0"
               id="path4822"
               d="m 78.859555,-0.38367784 q 0.73291,-0.76142366 1.969696,-0.76142366 v 1.04695755 q -0.183228,-0.04758898 -0.503876,-0.04758898 -0.687103,0 -1.282593,0.61865676 -0.503875,0.52347879 -0.687103,1.09454657 v 2.7125719 h -0.916137 v -5.3299659 h 0.916137 v 1.3324915 q 0.229035,-0.38071185 0.503876,-0.66624574 z"
               style="font-style:normal;font-variant:normal;font-weight:normal;font-stretch:normal;font-size:medium;line-height:1.25;font-family:'MS PGothic';-inkscape-font-specification:'MS PGothic, Normal';font-variant-ligatures:normal;font-variant-caps:normal;font-variant-numeric:normal;font-feature-settings:normal;text-align:start;letter-spacing:0px;word-spacing:0px;writing-mode:lr-tb;text-anchor:start;fill:#ffffff;fill-opacity:1;stroke:#ffffff;stroke-width:0.40327504;stroke-miterlimit:4;stroke-dasharray:none;stroke-opacity:1" />
            <path
               inkscape:connector-curvature="0"
               id="path4820"
               d="m 71.622068,-1.0499236 h 0.916137 V 2.51925 q 0,0.5710678 0.274842,0.8566017 0.229034,0.2379449 0.641296,0.2379449 0.595489,0 1.053558,-0.4758898 0.687103,-0.7138347 0.687103,-1.4752584 v -2.712572 h 0.916138 V 4.2800423 H 75.195004 V 3.3282627 q -0.73291,1.0469576 -1.786468,1.0469576 -0.961945,0 -1.374206,-0.4283008 -0.412262,-0.4283009 -0.412262,-1.0945466 z"
               style="font-style:normal;font-variant:normal;font-weight:normal;font-stretch:normal;font-size:medium;line-height:1.25;font-family:'MS PGothic';-inkscape-font-specification:'MS PGothic, Normal';font-variant-ligatures:normal;font-variant-caps:normal;font-variant-numeric:normal;font-feature-settings:normal;text-align:start;letter-spacing:0px;word-spacing:0px;writing-mode:lr-tb;text-anchor:start;fill:#ffffff;fill-opacity:1;stroke:#ffffff;stroke-width:0.40327504;stroke-miterlimit:4;stroke-dasharray:none;stroke-opacity:1" />
            <path
               inkscape:connector-curvature="0"
               style="font-style:normal;font-variant:normal;font-weight:normal;font-stretch:normal;font-size:medium;line-height:1.25;font-family:'MS PGothic';-inkscape-font-specification:'MS PGothic, Normal';font-variant-ligatures:normal;font-variant-caps:normal;font-variant-numeric:normal;font-feature-settings:normal;text-align:start;letter-spacing:0px;word-spacing:0px;writing-mode:lr-tb;text-anchor:start;fill:#ffffff;fill-opacity:1;stroke:#ffffff;stroke-width:1.52418911;stroke-miterlimit:4;stroke-dasharray:none;stroke-opacity:1"
               d="m 256.84766,45.671875 c -2.53922,0 -4.67497,0.898627 -6.40625,2.697266 -1.96213,2.038457 -2.94336,4.616734 -2.94336,7.734375 0,3.11764 0.98123,5.695917 2.94336,7.734375 1.73128,1.798638 3.86703,2.699218 6.40625,2.699218 2.53921,0 4.67496,-0.90058 6.40625,-2.699218 1.96212,-2.038458 2.9414,-4.616735 2.9414,-7.734375 0,-3.117641 -0.97928,-5.695918 -2.9414,-7.734375 -1.73129,-1.798639 -3.86704,-2.697266 -6.40625,-2.697266 z m 0,3.238281 c 1.38502,0 2.53954,0.478226 3.46289,1.4375 1.38502,1.438911 2.07617,3.357675 2.07617,5.75586 0,2.398184 -0.63469,4.25717 -1.9043,5.576172 -1.03877,1.079183 -2.24974,1.61914 -3.63476,1.61914 -1.38503,0 -2.59795,-0.539957 -3.63672,-1.61914 -1.26961,-1.319002 -1.9043,-3.177988 -1.9043,-5.576172 0,-2.398185 0.6931,-4.316949 2.07813,-5.75586 0.92335,-0.959274 2.07786,-1.4375 3.46289,-1.4375 z"
               transform="matrix(0.26458333,0,0,0.26458333,0,-13.229166)"
               id="path4818" />
            <path
               inkscape:connector-curvature="0"
               id="path4814"
               d="m 59.126437,-4.3222899 h 5.563368 v 0.9549246 h -4.450693 v 2.81451465 h 3.483149 V 0.40207396 H 60.239112 V 4.2720315 h -1.112675 z"
               style="font-style:normal;font-variant:normal;font-weight:normal;font-stretch:normal;font-size:medium;line-height:1.25;font-family:'MS PGothic';-inkscape-font-specification:'MS PGothic, Normal';font-variant-ligatures:normal;font-variant-caps:normal;font-variant-numeric:normal;font-feature-settings:normal;text-align:start;letter-spacing:0px;word-spacing:0px;writing-mode:lr-tb;text-anchor:start;fill:#ffffff;fill-opacity:1;stroke:#ffffff;stroke-width:0.40327504;stroke-miterlimit:4;stroke-dasharray:none;stroke-opacity:1" />
          </g>
        </g>
        <g
           id="g4854"
           transform="matrix(1.3498444,0,0,1.3498444,216.97492,62.744049)"
           style="fill:#ff2a2a;fill-opacity:1;stroke:#ff2a2a;stroke-opacity:1">
          <path
             style="font-style:normal;font-variant:normal;font-weight:normal;font-stretch:normal;font-size:medium;line-height:1.25;font-family:'MS PGothic';-inkscape-font-specification:'MS PGothic, Normal';font-variant-ligatures:normal;font-variant-caps:normal;font-variant-numeric:normal;font-feature-settings:normal;text-align:start;letter-spacing:0px;word-spacing:0px;writing-mode:lr-tb;text-anchor:start;fill:#ff2a2a;fill-opacity:1;stroke:#ff2a2a;stroke-width:0.40327504;stroke-miterlimit:4;stroke-dasharray:none;stroke-opacity:1"
             d="m 51.562705,-2.9058938 h 0.916138 v 1.8559702 h 1.557434 v 0.76142373 H 52.478843 V 2.8047839 q 0,0.2855339 0.229034,0.5234788 0.183228,0.1903559 0.59549,0.1903559 0.641296,0 1.145172,-0.3331228 v 0.9041906 q -0.503876,0.2855339 -1.099365,0.2855339 -0.916138,0 -1.3284,-0.4283008 Q 51.562705,3.4710296 51.562705,2.8999619 V -0.28849987 H 50.46334 V -1.0499236 h 1.099365 z"
             id="path4812"
             inkscape:connector-curvature="0" />
          <path
             style="font-style:normal;font-variant:normal;font-weight:normal;font-stretch:normal;font-size:medium;line-height:1.25;font-family:'MS PGothic';-inkscape-font-specification:'MS PGothic, Normal';font-variant-ligatures:normal;font-variant-caps:normal;font-variant-numeric:normal;font-feature-settings:normal;text-align:start;letter-spacing:0px;word-spacing:0px;writing-mode:lr-tb;text-anchor:start;fill:#ff2a2a;fill-opacity:1;stroke:#ff2a2a;stroke-width:0.40327504;stroke-miterlimit:4;stroke-dasharray:none;stroke-opacity:1"
             d="m 45.149742,1.6626484 q 0,-1.28490254 0.73291,-2.04632624 0.687103,-0.71383476 1.694854,-0.71383476 1.099366,0 1.649048,0.57106782 0.503876,0.52347879 0.59549,1.28490249 h -1.007752 q -0.04581,-0.38071185 -0.366455,-0.71383472 -0.274841,-0.28553388 -0.824524,-0.28553388 -0.549682,0 -0.916137,0.38071185 -0.549683,0.57106777 -0.549683,1.57043634 0,0.9517797 0.503876,1.4752585 0.366455,0.3807118 0.916137,0.3807118 0.641297,0 1.007752,-0.3807118 0.366455,-0.3807119 0.366455,-0.9993686 h 1.007751 q -0.04581,0.9993686 -0.641296,1.6180253 -0.595489,0.6186568 -1.740662,0.6186568 -0.961944,0 -1.60324,-0.6662458 -0.824524,-0.8566016 -0.824524,-2.0939151 z"
             id="path4810"
             inkscape:connector-curvature="0" />
          <path
             id="path4808"
             transform="matrix(0.26458333,0,0,0.26458333,0,-13.229166)"
             d="m 157.66016,45.671875 c -2.53922,0 -4.61656,0.838849 -6.23243,2.517578 -1.96212,2.038457 -2.94335,4.676513 -2.94335,7.914063 -10e-6,3.237549 0.92282,5.815827 2.76953,7.734375 1.73128,1.798638 3.9819,2.699218 6.75195,2.699218 2.65464,0 4.73198,-0.781023 6.23242,-2.339843 1.03877,-1.079183 1.79028,-2.697103 2.25195,-4.855469 h -3.80859 c 0,1.079183 -0.40496,2.037588 -1.21289,2.876953 -0.69251,0.719455 -1.84702,1.080078 -3.46289,1.080078 -1.61586,0 -2.94365,-0.539957 -3.98242,-1.61914 -1.15419,-1.199093 -1.73047,-3.058078 -1.73047,-5.576172 h 14.02344 c 0,-3.477369 -0.80797,-6.055646 -2.42383,-7.734375 -1.73129,-1.798639 -3.80863,-2.697266 -6.23242,-2.697266 z m -0.17383,3.058594 c 1.50044,0 2.65496,0.418448 3.46289,1.257812 0.92335,0.959274 1.38476,2.039189 1.38476,3.238281 h -9.86718 c 0.23084,-1.199092 0.74871,-2.219229 1.55664,-3.058593 0.92335,-0.959274 2.07786,-1.4375 3.46289,-1.4375 z"
             style="font-style:normal;font-variant:normal;font-weight:normal;font-stretch:normal;font-size:medium;line-height:1.25;font-family:'MS PGothic';-inkscape-font-specification:'MS PGothic, Normal';font-variant-ligatures:normal;font-variant-caps:normal;font-variant-numeric:normal;font-feature-settings:normal;text-align:start;letter-spacing:0px;word-spacing:0px;writing-mode:lr-tb;text-anchor:start;fill:#ff2a2a;fill-opacity:1;stroke:#ff2a2a;stroke-width:1.52418911;stroke-miterlimit:4;stroke-dasharray:none;stroke-opacity:1"
             inkscape:connector-curvature="0" />
          <path
             style="font-style:normal;font-variant:normal;font-weight:normal;font-stretch:normal;font-size:medium;line-height:1.25;font-family:'MS PGothic';-inkscape-font-specification:'MS PGothic, Normal';font-variant-ligatures:normal;font-variant-caps:normal;font-variant-numeric:normal;font-feature-settings:normal;text-align:start;letter-spacing:0px;word-spacing:0px;writing-mode:lr-tb;text-anchor:start;fill:#ff2a2a;fill-opacity:1;stroke:#ff2a2a;stroke-width:0.40327504;stroke-miterlimit:4;stroke-dasharray:none;stroke-opacity:1"
             d="m 34.476738,4.2800423 h -0.916137 v -5.3299659 h 0.916137 v 0.95177965 q 0.824524,-1.04695755 1.740662,-1.04695755 0.916138,0 1.46582,0.57106774 0.366455,0.38071185 0.366455,0.90419064 V 4.2800423 H 37.133538 V 0.61569077 q 0,-0.42830083 -0.274842,-0.71383472 -0.274841,-0.28553389 -0.778717,-0.28553389 -0.458069,0 -0.916137,0.47588982 -0.687104,0.71383471 -0.687104,1.52284742 z"
             id="path4804"
             inkscape:connector-curvature="0" />
          <path
             style="font-style:normal;font-variant:normal;font-weight:normal;font-stretch:normal;font-size:medium;line-height:1.25;font-family:'MS PGothic';-inkscape-font-specification:'MS PGothic, Normal';font-variant-ligatures:normal;font-variant-caps:normal;font-variant-numeric:normal;font-feature-settings:normal;text-align:start;letter-spacing:0px;word-spacing:0px;writing-mode:lr-tb;text-anchor:start;fill:#ff2a2a;fill-opacity:1;stroke:#ff2a2a;stroke-width:0.40327504;stroke-miterlimit:4;stroke-dasharray:none;stroke-opacity:1"
             d="M 28.613458,4.2800423 H 27.69732 v -5.3299659 h 0.916138 v 0.95177965 q 0.824524,-1.04695755 1.740661,-1.04695755 0.916138,0 1.46582,0.57106774 0.366455,0.38071185 0.366455,0.90419064 V 4.2800423 H 31.270257 V 0.61569077 q 0,-0.42830083 -0.274842,-0.71383472 -0.274841,-0.28553389 -0.778717,-0.28553389 -0.458068,0 -0.916137,0.47588982 -0.687103,0.71383471 -0.687103,1.52284742 z"
             id="path4802"
             inkscape:connector-curvature="0" />
          <path
             id="path4800"
             transform="matrix(0.26458333,0,0,0.26458333,0,-13.229166)"
             d="m 90.832031,45.671875 c -2.539217,0 -4.673013,0.898627 -6.404297,2.697266 -1.962121,2.038457 -2.943359,4.616734 -2.943359,7.734375 0,3.11764 0.981238,5.695917 2.943359,7.734375 1.731284,1.798638 3.86508,2.699218 6.404297,2.699218 2.539215,0 4.674967,-0.90058 6.40625,-2.699218 1.962122,-2.038458 2.943359,-4.616735 2.943359,-7.734375 0,-3.117641 -0.981237,-5.695918 -2.943359,-7.734375 -1.731283,-1.798639 -3.867035,-2.697266 -6.40625,-2.697266 z m 0,3.238281 c 1.385026,0 2.53954,0.478226 3.462891,1.4375 1.385028,1.438911 2.078125,3.357675 2.078125,5.75586 0,2.398184 -0.634688,4.25717 -1.904297,5.576172 -1.03877,1.079183 -2.251693,1.61914 -3.636719,1.61914 -1.385028,0 -2.595995,-0.539957 -3.634765,-1.61914 -1.269609,-1.319002 -1.904297,-3.177988 -1.904297,-5.576172 0,-2.398185 0.691144,-4.316949 2.076172,-5.75586 0.923351,-0.959274 2.077862,-1.4375 3.46289,-1.4375 z"
             style="font-style:normal;font-variant:normal;font-weight:normal;font-stretch:normal;font-size:medium;line-height:1.25;font-family:'MS PGothic';-inkscape-font-specification:'MS PGothic, Normal';font-variant-ligatures:normal;font-variant-caps:normal;font-variant-numeric:normal;font-feature-settings:normal;text-align:start;letter-spacing:0px;word-spacing:0px;writing-mode:lr-tb;text-anchor:start;fill:#ff2a2a;fill-opacity:1;stroke:#ff2a2a;stroke-width:1.52418911;stroke-miterlimit:4;stroke-dasharray:none;stroke-opacity:1"
             inkscape:connector-curvature="0" />
          <path
             style="font-style:normal;font-variant:normal;font-weight:normal;font-stretch:normal;font-size:medium;line-height:1.25;font-family:'MS PGothic';-inkscape-font-specification:'MS PGothic, Normal';font-variant-ligatures:normal;font-variant-caps:normal;font-variant-numeric:normal;font-feature-settings:normal;text-align:start;letter-spacing:0px;word-spacing:0px;writing-mode:lr-tb;text-anchor:start;fill:#ff2a2a;fill-opacity:1;stroke:#ff2a2a;stroke-width:0.40327504;stroke-miterlimit:4;stroke-dasharray:none;stroke-opacity:1"
             d="M 13.508494,5.1999728e-7 Q 13.508494,-2.2114039 14.717922,-3.4678836 q 0.919166,-0.9549246 2.370477,-0.9549246 1.451315,0 2.273725,0.8544063 0.870788,0.9046652 0.919166,2.3119227 h -1.161053 q -0.09675,-1.0554432 -0.628901,-1.6082941 -0.580523,-0.6031103 -1.402937,-0.6031103 -0.870788,0 -1.548067,0.7036286 Q 14.669547,-1.8595896 14.669547,5.1999728e-7 14.669547,1.8595906 15.540332,2.7642558 q 0.628904,0.6533694 1.548067,0.6533694 0.967544,0 1.499693,-0.5528509 0.677279,-0.7036285 0.677279,-2.01036776 h 1.16105 q -0.04838,1.70881266 -0.967544,2.66373726 -0.82241,0.854406 -2.370478,0.854406 -1.451311,0 -2.370477,-0.9549246 Q 13.508494,2.1611458 13.508494,5.1999728e-7 Z"
             id="path4792"
             inkscape:connector-curvature="0" />
        </g>
      </g>
    </g>
    <flowRoot
       xml:space="preserve"
       id="flowRoot4197"
       style="fill:black;fill-opacity:1;stroke:none;font-family:sans-serif;font-style:normal;font-weight:normal;font-size:40px;line-height:1.25;letter-spacing:0px;word-spacing:0px"><flowRegion
         id="flowRegion4199"><rect
           id="rect4201"
           width="1041.4286"
           height="430"
           x="275.71429"
           y="242.85715" /></flowRegion><flowPara
         id="flowPara4203" /></flowRoot>    <flowRoot
       transform="matrix(0.31257925,0,0,0.32474005,39.109493,60.345899)"
       style="font-style:normal;font-variant:normal;font-weight:normal;font-stretch:normal;font-size:40px;line-height:1;font-family:'MS PGothic';-inkscape-font-specification:'MS PGothic, Normal';font-variant-ligatures:normal;font-variant-caps:normal;font-variant-numeric:normal;font-feature-settings:normal;text-align:start;letter-spacing:0px;word-spacing:0px;writing-mode:lr-tb;text-anchor:start;display:inline;fill:#ff2a2a;fill-opacity:1;stroke:none;stroke-width:1.34959292;stroke-miterlimit:4;stroke-dasharray:none;stroke-opacity:1"
       id="flowRoot4493-3-9"
       xml:space="preserve"><flowRegion
         style="font-style:normal;font-variant:normal;font-weight:normal;font-stretch:normal;font-size:40px;line-height:1;font-family:'MS PGothic';-inkscape-font-specification:'MS PGothic, Normal';font-variant-ligatures:normal;font-variant-caps:normal;font-variant-numeric:normal;font-feature-settings:normal;text-align:start;writing-mode:lr-tb;text-anchor:start;fill:#ff2a2a;fill-opacity:1;stroke:none;stroke-width:1.34959292;stroke-miterlimit:4;stroke-dasharray:none;stroke-opacity:1"
         id="flowRegion4489-9-7"><rect
           style="font-style:normal;font-variant:normal;font-weight:normal;font-stretch:normal;font-size:40px;line-height:1;font-family:'MS PGothic';-inkscape-font-specification:'MS PGothic, Normal';font-variant-ligatures:normal;font-variant-caps:normal;font-variant-numeric:normal;font-feature-settings:normal;text-align:start;writing-mode:lr-tb;text-anchor:start;fill:#ff2a2a;fill-opacity:1;stroke:none;stroke-width:1.34959292;stroke-miterlimit:4;stroke-dasharray:none;stroke-opacity:1"
           y="12.857143"
           x="113.21429"
           height="349.87656"
           width="893.97437"
           id="rect4487-5-0" /></flowRegion><flowPara
         id="flowPara4491-6-1"
         style="line-height:1">Connect Four is a group project created for </flowPara><flowPara
         style="line-height:1"
         id="flowPara4400">CS 151: Object-Oriented Design. The goal of the game is connect four pieces in a row, either vertically, horizontally, or diagonally. Bug reports can be sent to  (insert email address)@email.com.</flowPara><flowPara
         style="line-height:1"
         id="flowPara4398" /><flowPara
         style="line-height:1"
         id="flowPara3224">Current version: 25 March, 2019</flowPara><flowPara
         style="line-height:1"
         id="flowPara3220">Written by Krish Ghiya, Holly Lind, and Albert Ong. </flowPara></flowRoot>    <flowRoot
       xml:space="preserve"
       id="flowRoot4390"
       style="fill:black;fill-opacity:1;stroke:none;font-family:sans-serif;font-style:normal;font-weight:normal;font-size:40px;line-height:1.25;letter-spacing:0px;word-spacing:0px"><flowRegion
         id="flowRegion4392"><rect
           id="rect4394"
           width="560"
           height="100"
           x="1768.5714"
           y="1028.5714" /></flowRegion><flowPara
         id="flowPara4396" /></flowRoot>    <path
       style="fill:none;stroke:#ff2a2a;stroke-width:1.32291675;stroke-linecap:butt;stroke-linejoin:miter;stroke-miterlimit:4;stroke-dasharray:none;stroke-opacity:1"
       d="M 69.758851,54.428574 H 353.57449"
       id="path4402"
       inkscape:connector-curvature="0"
       sodipodi:nodetypes="cc" />
    <rect
       style="fill:#ff2a2a;fill-opacity:1;stroke:#ff2a2a;stroke-width:0.96873307;stroke-miterlimit:4;stroke-dasharray:none;stroke-opacity:1"
       id="rect4947"
       width="104.8646"
       height="20.197933"
       x="153.36716"
       y="260.6528"
       ry="3.124208" />
    <rect
       style="fill:none;fill-opacity:1;stroke:#ff2a2a;stroke-width:0.5430885;stroke-miterlimit:4;stroke-dasharray:none;stroke-opacity:1"
       id="rect4949"
       width="312.14493"
       height="161.57047"
       x="55.594208"
       y="16.822973"
       ry="0"
       inkscape:export-xdpi="96"
       inkscape:export-ydpi="96"
       inkscape:export-filename="C:\Users\alber\eclipse-workspace\Connect Four\images\ConnectFourAboutWindow_text.png" />
    <flowRoot
       transform="matrix(0.31257926,0,0,0.32474004,-353.98575,60.3459)"
       style="font-style:normal;font-variant:normal;font-weight:normal;font-stretch:normal;font-size:40px;line-height:1;font-family:'MS PGothic';-inkscape-font-specification:'MS PGothic, Normal';font-variant-ligatures:normal;font-variant-caps:normal;font-variant-numeric:normal;font-feature-settings:normal;text-align:start;letter-spacing:0px;word-spacing:0px;writing-mode:lr-tb;text-anchor:start;display:inline;fill:#ff2a2a;fill-opacity:1;stroke:none;stroke-width:1.34959292;stroke-miterlimit:4;stroke-dasharray:none;stroke-opacity:1"
       id="flowRoot4493-3-9-0"
       xml:space="preserve"><flowRegion
         style="font-style:normal;font-variant:normal;font-weight:normal;font-stretch:normal;font-size:40px;line-height:1;font-family:'MS PGothic';-inkscape-font-specification:'MS PGothic, Normal';font-variant-ligatures:normal;font-variant-caps:normal;font-variant-numeric:normal;font-feature-settings:normal;text-align:start;writing-mode:lr-tb;text-anchor:start;fill:#ff2a2a;fill-opacity:1;stroke:none;stroke-width:1.34959292;stroke-miterlimit:4;stroke-dasharray:none;stroke-opacity:1"
         id="flowRegion4489-9-7-1"><rect
           style="font-style:normal;font-variant:normal;font-weight:normal;font-stretch:normal;font-size:40px;line-height:1;font-family:'MS PGothic';-inkscape-font-specification:'MS PGothic, Normal';font-variant-ligatures:normal;font-variant-caps:normal;font-variant-numeric:normal;font-feature-settings:normal;text-align:start;writing-mode:lr-tb;text-anchor:start;fill:#ff2a2a;fill-opacity:1;stroke:none;stroke-width:1.34959292;stroke-miterlimit:4;stroke-dasharray:none;stroke-opacity:1"
           y="12.857143"
           x="113.21429"
           height="349.87656"
           width="893.97437"
           id="rect4487-5-0-3" /></flowRegion><flowPara
         id="flowPara4491-6-1-4"
         style="line-height:1">Suspendisse a scelerisque lacus, placerat bibendum lectus. Etiam lobortis fermentum lacus vitae sodales. Suspendisse vitae leo malesuada, viverra metus et, accumsan lacus. Suspendisse nec mollis nisl. Sed vehicula volutpat auctor. Proin quis tortor ac ex iaculis viverra at non nisi.</flowPara><flowPara
         style="line-height:1"
         id="flowPara4400-1"> </flowPara><flowPara
         style="line-height:1"
         id="flowPara4398-7">Written by Krish Ghiya, Holly Lind, and Albert Ong.</flowPara></flowRoot>  </g>
</svg>
